<svg xmlns="http://www.w3.org/2000/svg" id="svg" style="display:block" viewBox="0 0 418 188">
  <path d="m0 0 1.227 1.402c2.776 2.502 6.14 2.78 9.71 3.41l2.17.444C17.141 6 19.507 6.199 23 4c3.167.194 5.259.481 7.875 2.313C32 8 32 8 32 12l2.438.563C42.838 15.953 48.844 21.996 53 30v2l2.375.313C58 33 58 33 60 36c.125 2.094.125 2.094 0 4.5-.107 5.594.33 11.134 2 16.5a407 407 0 0 0 3 3c.72 3.497.635 6.87-1.125 10-2.664 1.421-4.91 1.198-7.875 1l-.875 2.375C54 76 54 76 52 78c-.34 2.273-.441 4.514-.559 6.809C50.908 87.458 50.107 88.354 48 90c-2.818.783-5.595 1.074-8.5 1.438-3.418.415-3.418.415-6.125 1.624C30.753 94.099 28.793 94.16 26 94c.282 4.04.603 5.613 3.563 8.5C32 105 32 105 32.5 108.063c-.56 3.295-1.016 4.701-3.5 6.937-3.659 1.193-5.3 1.327-8.812-.312C18 113 18 113 17 111l.188-3.262C16.864 101.284 12.606 97.242 8 93c-2.785-1.277-4.92-1.575-8-2l-1.371-1.504c-2.345-2.154-4.18-1.865-7.316-1.933-5.503-.36-9.961-.994-14.313-4.563-1.467-1.963-2.672-3.973-3.883-6.102C-28.595 73.99-30.025 72.646-33 71c-3.016-.617-6.004-1.063-9.062-1.41-5.567-1.118-9.059-4.243-12.59-8.488-1.97-3.072-2.792-6.238-3.61-9.77-.823-2.6-2.092-4.183-3.738-6.332-.437-3-.437-3 0-6 1.813-2.375 1.813-2.375 4-4h3l.5-2.437c1.82-4.323 4.426-6.917 7.598-10.313C-44.416 19.309-43.32 16.592-42 13c2-2 2-2 3.813-2.055l2.187.18c4.8.13 8.094-1.243 12.426-3.168C-19.475 6.433-15.341 6.185-11 6l.875-2.437C-8.072-1.115-4.678-.328 0 0" style="fill:#0f69c8" transform="translate(207 10)"/>
  <path d="M0 0a264 264 0 0 1 3 5c3.6.896 3.6.896 7 1v2H3l-.312 1.75C1.902 12.32.694 13.937-1 16v-2h-8l-1-3c-6.42.408-12.693 1.051-18 5-1.606 2.644-2.106 4.918-2 8 1.215 3.437 1.215 3.437 3 6 4.427.305 4.427.305 8.375-1.5L-17 27l-.879 5.957c-.26 2.246-.26 2.246.879 5.043a102 102 0 0 0 3 3v1l-9 3v16l5-2 3 1-.875 1.5c-1.032 2.293-1.54 4.245-2.062 6.688L-19 72l-3 1c2.113 4.708 2.113 4.708 6 8 2.387.295 4.786.493 7.188.625l3.855.227L-2 82l.938-1.937C0 78 0 78 1 77l3.75.188C8.229 77.256 8.925 77.05 12 75l2-2 2 1-1.437 2.438C12.679 80.733 11.203 84.28 12 89c1.847 2.92 3.887 5.383 6.215 7.934C20 99 20 99 20 101h2l-.496-1.703c-.533-2.428-.603-4.566-.567-7.047l.028-2.422L21 88l1.977.07c5.11.106 9.227-.05 14.023-2.07l1-11c3.51 0 6.565.375 10 1 1.408-2.628 2.508-5.046 3-8l-1-2c-2.118-.687-2.118-.687-4.562-1.125l-2.504-.508L41 64v-2h10l2-4 4-1-2-9c-5.282-1.2-5.282-1.2-10 1v-9l-4.312-.625-2.426-.352c-2.55-.238-2.55-.238-5.262 1.977-.577 1.964-.577 1.964-.687 4.125L32 49h-1l-.125-2.812c-.547-3.458-.547-3.458-3.812-4.876L24 40c-2.155-3.233-2.469-4.252-2-8l1.52-1.371c1.695-1.535 1.695-1.535 1.668-3.82L25 24.437c-.187-2.378-.187-2.378 0-4.437l3-2 2 10 4 1c1.75 1.438 1.75 1.438 3 3v2l9 1c.828-3.312 1.093-5.66 1-9l3 1 .75 1.875C52.657 32.117 55.601 32.64 59 34c1.203 2.406 1.036 3.761.938 6.438-.05 5.603.39 11.189 2.062 16.562a407 407 0 0 0 3 3c.72 3.497.635 6.87-1.125 10-2.664 1.421-4.91 1.198-7.875 1l-.875 2.375C54 76 54 76 52 78c-.34 2.273-.441 4.514-.559 6.809C50.908 87.458 50.107 88.354 48 90c-2.818.783-5.595 1.074-8.5 1.438-3.418.415-3.418.415-6.125 1.624C30.753 94.099 28.793 94.16 26 94c.282 4.04.603 5.613 3.563 8.5C32 105 32 105 32.5 108.063c-.56 3.295-1.016 4.701-3.5 6.937-3.659 1.193-5.3 1.327-8.812-.312C18 113 18 113 17 111l.188-3.262C16.864 101.284 12.606 97.242 8 93c-2.785-1.277-4.92-1.575-8-2l-1.371-1.504c-2.345-2.154-4.18-1.865-7.316-1.933-5.503-.36-9.961-.994-14.313-4.563-1.467-1.963-2.672-3.973-3.883-6.102C-28.595 73.99-30.025 72.646-33 71c-3.016-.617-6.004-1.063-9.062-1.41-5.567-1.118-9.059-4.243-12.59-8.488-1.97-3.072-2.792-6.238-3.61-9.77-.823-2.6-2.092-4.183-3.738-6.332-.437-3-.437-3 0-6 1.813-2.375 1.813-2.375 4-4h3l.5-2.437c1.82-4.323 4.426-6.917 7.598-10.313C-44.416 19.309-43.32 16.592-42 13c2-2 2-2 3.813-2.055l2.187.18c4.8.13 8.094-1.243 12.426-3.168C-19.475 6.433-15.341 6.185-11 6l.875-2.437C-8.088-1.078-4.66-.49 0 0" style="fill:#0c68c9" transform="translate(207 10)"/>
  <path d="M0 0c3.784 2.064 6.414 4.265 9.25 7.5l2.324 2.648C15.454 14.708 19.248 19.334 23 24l-.36-2.012c-1.065-7.302-1.065-7.302 1.297-11.113L26 9c3 1 3 1 3.951 2.803l.803 2.361.897 2.63c.3.935.601 1.869.912 2.831l.952 2.874c2.192 6.874 3.204 13.272 3.887 20.446C38.324 47.656 40.59 49.737 44 53c0 3 0 3-1.398 4.508l-1.977 1.617c-4.3 3.565-8.316 7.366-12.328 11.25C26 72 26 72 23.87 71.957c-2.214-1.133-3.12-2.252-4.558-4.27-2.344-2.91-4.215-4.318-7.688-5.687C2.453 58.35-3.693 50.303-10 43l-2.605-2.91-2.52-2.903-2.32-2.644C-19 32-19 32-18.742 29.176L-18 27c1.688-.812 1.688-.812 4-1 2.438 2.188 2.438 2.188 5 5a274 274 0 0 0 5 4l-2.047-2.23-2.703-2.958-2.672-2.917c-6.566-7.372-6.566-7.372-6.64-10.582C-17 14-17 14-14.437 12.688L-12 12l-2-3c-.187-2.625-.187-2.625 0-5 1-1 1-1 3.727-1.437 3.828.511 4.988 1.735 7.355 4.703L-1.625 9l1.363 1.734A281 281 0 0 1 3 15C.278 10.779.278 10.779-3 7c-.312-2.5-.312-2.5 0-5zm-10 14c1.309 3.122 1.309 3.122 4 5-1.309-3.122-1.309-3.122-4-5m16 4c1.37 3.161 1.99 3.993 5 6-1.37-3.161-1.99-3.993-5-6m-11 2c1.364 2.992 2.95 5.29 5.125 7.75l1.633 1.86L3 31l1-2a975 975 0 0 0-3.375-3.937l-1.898-2.215C-2.877 20.916-2.877 20.916-5 20" style="fill:#0f2754" transform="translate(303 53)"/>
  <path d="M0 0c1.207.03 1.207.03 2.438.063.835 2.082.835 2.082 1 5C1.72 7.527.086 9.57-1.939 11.75c-3.701 3.88-3.701 3.88-6.624 8.313Q-6.25 17.533-3.939 15l1.388-1.511a149 149 0 0 0 7.3-8.614C7.438 2.063 7.438 2.063 10.188 1.5c2.25.563 2.25.563 4.25 2.563-.184 4.69-2.429 7.001-5.563 10.312l-2.504 2.676-1.934 2.012c2.909-2.22 4.954-3.93 7-7 2.626-.188 2.626-.188 5 0 1.313 2.062 1.313 2.062 2 5-1.279 2.657-2.911 4.917-5 7h-2l-.773 1.734c-1.357 2.507-2.946 4.399-4.851 6.515l-1.915 2.141-1.46 1.61C5.36 33.89 7.778 31.74 10 28.875c2.438-2.812 2.438-2.812 4.625-3.812 1.813 0 1.813 0 3.813 2 .544 3.339.27 4.623-1.723 7.394l-2.34 2.418-2.496 2.637-2.441 2.55a392 392 0 0 0-3.626 4.126L4.099 48.12a78 78 0 0 0-3.227 4.04c-4.192 5.404-8.178 7.211-14.543 9.538-4.463 2.105-7.09 5.389-9.89 9.364-2.995-1.362-5.249-2.927-7.688-5.126l-2.074-1.855-2.239-2.02-5-4.437-4-3.562 1.278-1.68 1.66-2.196 1.652-2.18c2.361-3.256 2.538-5.321 2.72-9.304.515-6.76 2.387-12.573 4.753-18.89l1.143-3.16q1.378-3.803 2.794-7.59c4.875.874 4.875.874 6 2 .073 1.852.084 3.708.063 5.562l-.027 3.066-.035 2.372c9.014-9.699 9.014-9.699 17.792-19.61C-2.697.066-2.697.066 0 0m2.438 21.063-6 7h3c2.2-2.44 2.2-2.44 4-5z" style="fill:#0e2753" transform="translate(114.563 53.938)"/>
  <path d="M0 0c2.97.093 5.208.325 7.523 2.298C9.087 4.047 10.554 5.841 12 7.688q1.495 1.852 3 3.699l1.477 1.821C18.828 15.974 21.393 18.475 24 21l-.324-2.3-.363-3.012-.387-2.989C23 10 23 10 24.23 8.082 26 7 26 7 27.981 7.152 30 8 30 8 31.157 9.942l.913 2.546 1.024 2.814 1.031 3.01 1.082 3.04c2.108 6.093 3.497 11.886 4.227 18.3.842 3.492 2.795 5.486 5.421 7.848C46 49 46 49 46.012 50.828c-1.5 3.22-3.881 5.474-6.387 7.922l-1.5 1.535C34.38 64 34.38 64 31 64c-3.09-3.068-3.401-5.703-3.75-9.937-1.14-9.47-4.425-18.192-7.64-27.13C19 25 19 25 19 23c-4.368.339-4.368.339-7.812 2.813C10.052 27.903 9.417 29.666 9 32H7c-1.396-1.528-2.716-3.127-4-4.75-2.557-3.224-5.11-6.407-7.852-9.477l-1.402-1.594a708 708 0 0 0-3.973-4.452C-12 9-12 9-11.836 6.21-11 4-11 4-10 3c2.375-.25 2.375-.25 5 0 1.813 1.5 1.813 1.5 3 3zm-1 7c1.491 3.795 3.757 5.61 7 8-1.491-3.795-3.757-5.61-7-8m7 8 2 4 2-1z" style="fill:#142a54" transform="translate(314 38)"/>
  <path d="M0 0c2.438.125 2.438.125 5 1 1.313 2.563 1.313 2.563 2 5l1.188-1.5C10.55 2.544 12.014 2.758 15 3c.879 3.031.879 3.031 1 7-1.603 2.885-3.784 5.13-6.062 7.5l-3.473 3.781-1.743 1.848C2.466 25.58.36 28.144-1.736 30.732L-3 32h-2l-.812-3.375C-6.658 24.782-6.658 24.782-10 23c-2.106-.07-2.106-.07-4 1-1.282 2.173-1.282 2.173-2.105 4.926-.344 1.025-.688 2.05-1.041 3.107l-1.041 3.28-1.077 3.15c-2.089 6.394-3.192 12.236-3.358 18.967C-23.06 60.4-24.031 61.78-26 64c-7.206-1.068-11.596-7.771-16-13 3.703-5.746 3.703-5.746 5.594-7.363 1.962-2.284 1.854-4.026 2.093-7.012.876-6.654 2.881-12.607 5.25-18.875l1.056-2.853 1.034-2.663.93-2.399C-25 8-25 8-22 7l3 2c.293 2.82.293 2.82.188 6.125l-.083 3.32L-19 21C-13.347 14.866-7.701 8.734-2.242 2.426A48 48 0 0 1 0 0m2 10-7 7 1 2 7-7z" style="fill:#132954" transform="translate(99 38)"/>
  <path d="M0 0c7.388 1.332 7.388 1.332 10.063 4.25C11.239 7.7 11.222 9.564 10 13c-3.658 2.26-7.781 2.504-12 3l2.703.078 3.547.172 3.516.14C11 17 11 17 13.406 18.532c2.256 3.494 2.028 6.711 1.844 10.719l-.055 2.258A339 339 0 0 1 15 37l-3 1c-1.209 2-1.209 2-2 4-6.459.404-11.061-.408-17-3l2 5c-5.853-4.193-8.554-8.282-11-15-1.19-3.043-2.173-5.26-4-8-.437-2.5-.437-2.5 0-5 2.313-1.687 2.313-1.687 5-3 3.248-1.722 3.248-1.722 4-5l3-1 1 1z" style="fill:#0f6ac8" transform="translate(165 34)"/>
  <path d="M0 0c2.692 1.265 5.038 2.7 7.488 4.383l2.395 1.633 1.793 1.242c-8.786 5.857-20.978 5.403-31 4q-.063 3.5 0 7c1.054 1.265 1.054 1.265 3.437 1.25l2.563-.25 2-3a75 75 0 0 1 7.75-1.688l2.133-.392c4.084-.718 7.954-1.058 12.117-.92a268 268 0 0 1-5 5l-1.832 1.89c-5.114 4.963-5.114 4.963-8.356 5.415-.701-.04-1.402-.078-2.125-.118l-3.687-.187-1.301 1.957c-1.7 2.043-1.7 2.043-4.879 2.574l-3.695-.031-3.68.031c-3.983-.614-5.63-1.7-8.445-4.531-1-2.563-1-2.563-1-5a102 102 0 0 1 3-3l.133-2.73c1.288-4.857 4.31-6.45 8.367-9.145l2.07-1.508C-15.116.714-11.802-.266-6.189.175-3.392.3-2.86-.913 0 0" style="fill:#f2f8fb" transform="translate(218.324 62.742)"/>
  <path d="m0 0 3 2c2.654.67 5.253 1.245 7.938 1.75l2.17.457C17.147 4.978 19.495 5.214 23 3c3.167.194 5.259.481 7.875 2.313C32 7 32 7 32 11l2.438.563C43.07 15.046 48.417 21.072 53 29l-1 2-1.375-2.437C49.253 25.91 49.253 25.91 47 25l.625 3.875c.352 2.18.352 2.18.375 4.125l-2 2c-2.164-.242-2.164-.242-4.625-.875l-2.477-.617L37 33l-.316-1.953L36 29l-2.937-.75C30 27 30 27 29.16 25.102c-.484-2.013-.83-4.058-1.16-6.102l-2 1-6-1-2 1-1-10L3 8V7h7V5l-3.312.188C3 5 3 5 1.063 3.625 0 2 0 2 0 0" style="fill:#126ccb" transform="translate(207 11)"/>
  <path d="M0 0h7l8 14c2.726-3.407 4.747-6.084 6.75-9.812l1.297-2.395L24 0h6v27h-6l-1-12-5 10c-5-1-5-1-6.582-2.848L8 16 7 27H0z" style="fill:#102449" transform="translate(10 143)"/>
  <path d="m0 0 3.766.008L7.5 0c2.987.113 5.605.54 8.516 1.133l1-1c6.159-.465 6.159-.465 9.375 1.312 3.389 3.52 2.743 7.81 2.687 12.375l-.014 2.127c-.011 1.729-.03 3.457-.048 5.186h-7l-1-14-4 1-1 13h-6l-.184-2.555-.254-3.32-.246-3.305c-.146-2.767-.146-2.767-1.316-4.82l-4-1-1 15h-7c-.03-3.313-.047-6.625-.063-9.938l-.025-2.865-.01-2.725-.016-2.523C-3.91-.148-3.288.146 0 0" style="fill:#162850" transform="translate(315.984 148.867)"/>
  <path d="M0 0c2.608 1.838 3.876 4.033 5 7 .407 3.583.192 6.588-1 10-4.5 3.825-9.379 3.255-15 3v12h-2c-1.656-1.863-1.656-1.863-3.5-4.312l-1.844-2.426c-3.304-4.512-4.119-6.488-3.36-11.945 1.255-4.13 4.04-6.315 7.329-8.942l1.832-1.637C-8.235-.853-5.624-1.777 0 0" style="fill:#f4f9fb" transform="translate(240 79)"/>
  <path d="m0 0 2.244.068c1.815.059 3.63.149 5.444.245.116 3.728.187 7.457.25 11.187l.101 3.197c.1 7.858.1 7.858-2.242 11.791C2.516 29.326.584 29.471-3.687 29.5l-2.899.043c-2.757-.233-4.376-.821-6.726-2.23l2-6 1.863.542L-7 22.5l2.426.668c2.351.406 2.351.406 4.054-1.305l1.208-1.55L-2.5 21c-4.293.352-5.556.026-8.812-2.687-2.739-3.195-3-4.737-3-9 .292-3.021 1.182-4.244 3.042-6.731C-7.352-.424-4.777-.278 0 0m-7.125 8.813-1.187 2.5c1.156 2.1 1.156 2.1 3 4 2.626.334 2.626.334 5 0 1.195-2.838 1.195-2.838 2-6C.046 6.088.046 6.088-2.75 5.813c-2.812.246-2.812.246-4.375 3" style="fill:#192b52" transform="translate(232.313 148.688)"/>
  <path d="m0 0 2.14.014q2.617.019 5.235.049c.146 3.895.234 7.79.313 11.687l.126 3.342c.123 8.131.123 8.131-2.61 12.213C2.06 29.258.476 29.658-3.188 29.5l-2.817-.066c-2.617-.371-4.355-1.044-6.621-2.372.375-2.437.375-2.437 1-5l2-1 1.75.938c2.856 1.349 5.13 1.204 8.25 1.063v-3l-2.625.687c-4.12.382-5.92-.49-9.375-2.687-2.68-4.02-2.696-7.277-2-12C-9.835-.002-6.715-.082 0 0m-5.625 6.063c-2.315 2.77-2.315 2.77-1.687 5.625.461 2.31.461 2.31 1.687 3.374 2.458.334 2.458.334 5 0 2.315-2.77 2.315-2.77 1.688-5.624C.6 7.127.6 7.127-.625 6.062c-2.458-.333-2.458-.333-5 0" style="fill:#16284e" transform="translate(278.625 148.938)"/>
  <path d="M0 0h20v6H6l1 4 12 1v5H6v5l3.027-.035c1.29-.01 2.581-.018 3.91-.027l3.903-.036C20 21 20 21 21 22v5H0z" style="fill:#15274f" transform="translate(172 143)"/>
  <path d="M0 0c2.458 3.501 2.204 6.66 2.016 10.766l-.055 2.257a339 339 0 0 1-.195 5.493l-3 1c-1.21 2-1.21 2-2 4-6.279.502-9.97.21-15-4-3.163-2.724-4.797-4.988-6-9v-4c2.187-.75 2.187-.75 5-1 3.942 2.383 5.66 4.615 7 9h6c1.002-3.584 1.002-3.584 0-7l-3.25-.375c-4.123-.687-5.829-1.704-8.75-4.625v-2q2.874-.506 5.75-1l3.234-.563C-2.951-1.96-2.951-1.96 0 0" style="fill:#edf5f9" transform="translate(178.234 52.484)"/>
  <path d="m0 0 3 1c.25 1.434.474 2.873.688 4.313l.386 2.425C3.98 10.63 3.04 11.081 1 13c-.078 3.54-.078 3.54 1 7 .674.43 1.348.859 2.043 1.3C6 23 6 23 6.391 26.138l-.141 3.55-.11 3.575L6 36c-1.582.715-1.582.715-4 1a51 51 0 0 1-6.687-3.437l-1.8-.967c-3.406-2.047-4.476-3.485-5.743-7.264-.276-5.548 2.725-9.683 5.605-14.207l1.578-2.586q1.439-2.356 2.908-4.695C-.966 2.006-.966 2.006 0 0" style="fill:#f2f8fb" transform="translate(229 29)"/>
  <path d="M0 0c3.967.397 7.102.73 10.75 2.375 1.503 2.788 2.046 3.929 2 7-1.503 3.926-3.653 7.38-5.875 10.938l-1.762 2.939A502 502 0 0 1 .75 30.375h-2c-5.626-19.39-5.626-19.39-5-26C-4.351 1.03-3.936.455 0 0" style="fill:#f5f9fc" transform="translate(213.25 18.625)"/>
  <path d="M0 0c2.756 2.182 4.436 3.872 6 7v6H-8v2H3l2 4c-4.46 2.86-7.75 3.514-12.875 2.691-2.805-.912-4.63-2.387-6.312-4.812C-15.75 13.267-15.781 9.822-15 6c3.835-6.136 8.065-7.102 15-6m-8 7v2h8a181 181 0 0 0-4-4c-1.462-.092-1.462-.092-4 2" style="fill:#1f3155" transform="translate(304 149)"/>
  <path d="M0 0h3c.679 3.018 1.34 6.04 2 9.063l.578 2.568C8.176 23.647 8.176 23.647 6 28c-5.883-1.158-11.618-2.31-17-5-1.078-2.555-1.078-2.555-1-6 1.561-3.225 3.613-6.01 5.75-8.875l1.672-2.375C-1.513 1.52-1.513 1.52 0 0" style="fill:#f3f8fb" transform="translate(200 25)"/>
  <path d="M0 0c3.098 2.191 3.804 3.41 5 7 .07 2.395.084 4.792.063 7.188l-.028 3.855L5 21c-2.396.304-4.785.569-7.187.813l-2.042.271c-4 .37-5.53.1-8.76-2.373C-15 17-15 17-15 13.813-14 11-14 11-11 9c2.262-.195 2.262-.195 4.688-.125l2.449.055L-2 9l-1-2h-9l-2-5C-9.47-.621-5.118-.707 0 0m-7 13v4c1.985-.267 1.985-.267 4-1l1-3z" style="fill:#0e244d" transform="translate(58 149)"/>
  <path d="M0 0c3.499 2.114 4.706 3.117 6 7 .07 2.395.084 4.792.063 7.188l-.028 3.855L6 21l-3.375-.062C-.832 20.736-.832 20.736-3 22c-3.714.413-5.61.207-8.937-1.562C-14 18-14 18-14 14.375-13 11-13 11-10 9c2.262-.195 2.262-.195 4.688-.125l2.449.055L-1 9l-1-2h-9l-2-5C-8.689-.444-4.868-.72 0 0m-7 13 1 4 5-2v-2z" style="fill:#192b51" transform="translate(142 149)"/>
  <path d="M0 0c2.81 1.794 4.51 3.019 6 6v7H-8v2H3l2 4c-4.102 2.983-6.963 3.54-12 3-4.146-1.79-6.21-3.854-8-8-.533-4.97-.153-8.059 3-12C-8.545-.687-4.195-.7 0 0m-7.25 6.938L-9 9h9c-.64-3.08-.64-3.08-2.812-3.937-2.406-.315-2.406-.315-4.438 1.875" style="fill:#182a50" transform="translate(95 149)"/>
  <path d="M0 0c2.81 1.794 4.51 3.019 6 6v7H-8v2H3l2 4c-4.103 2.984-6.958 3.62-12 3-4.006-2.116-6.355-3.776-8-8-.429-4.992.334-8.204 3.563-12.062C-6.963-.584-5.07-.724 0 0m-8 7v2h8l-1-3c-3.371-1.46-3.781-1.146-7 1" style="fill:#192b50" transform="translate(362 149)"/>
  <path d="m0 0 2.246-.121c3.67.885 5.081 2.565 7.317 5.559.58 2.805.478 5.462.312 8.312l-.068 2.244c-.059 1.815-.149 3.63-.245 5.444a612 612 0 0 1-6.75.625l-3.796.351c-3.299.022-4.81-.09-7.453-1.977-1.4-2.798-1.253-4.904-1-8 1.222-1.68 1.222-1.68 3-3 2.261-.292 2.261-.292 4.687-.187l2.45.082 1.863.105v-3l-10 1-1-5C-5.547.807-3.32.098 0 0m-2.437 13.438-1 3c3.049 1.01 3.049 1.01 6 0v-3z" style="fill:#1b2d52" transform="translate(252.438 148.563)"/>
  <path d="M0 0h8l3.438-.187C15.192.01 16.438.338 19 3c1.206 3.619 1.108 6.925 1.063 10.688l-.014 2.126Q20.029 18.408 20 21h-7L12 7 7 8 6 21H0z" style="fill:#102248" transform="translate(196 149)"/>
  <path d="m0 0 7.25-.187L9.513-.27c3.076-.039 5.191.108 7.909 1.594 3.33 3.537 2.696 7.82 2.64 12.364l-.013 2.126Q20.029 18.408 20 21h-6l-.184-2.555-.254-3.32c-.08-1.09-.162-2.181-.246-3.305C13.17 9.053 13.17 9.053 12 7H8c-1.35 2.702-1.339 5.118-1.562 8.125l-.254 3.32L6 21H0z" style="fill:#12254d" transform="translate(371 149)"/>
  <path d="M0 0h7v5h5v6H7v10l4-1c2 3 2 3 2 6-2.889 1.444-4.796 1.377-8 1-2.875-1.812-2.875-1.812-5-5-.411-3.705-.292-7.289 0-11l-3-1 1-5h2z" style="fill:#192b50" transform="translate(395 144)"/>
  <path d="M0 0h6v5h5v5l-5 1v10l4-1c2 3 2 3 2 6-2.889 1.444-4.796 1.377-8 1-2.875-1.812-2.875-1.812-5-5-.411-3.705-.292-7.289 0-11l-3-1 1-5h2z" style="fill:#192a4f" transform="translate(68 144)"/>
  <path d="M0 0c-.465 5.091-3.026 8.234-6 12.188C-9.26 16.43-9.26 16.43-12 21h-5c-2.145-3.214-4.07-6.21-3.914-10.172.967-3.34 2.027-5.24 4.957-7.183C-10.67 1.19-5.83 0 0 0" style="fill:#f3f8fb" transform="translate(197 20)"/>
  <path d="m0 0 2.258.764A379 379 0 0 1 7.75 2.688v3c-2.484 1.937-2.484 1.937-5.75 4-4.313 2.711-4.313 2.711-8.39 5.75-1.86 1.25-1.86 1.25-5.86 1.25a451 451 0 0 1-.25-7.813l-.102-2.236c-.058-3.23-.021-5.415 1.852-8.108C-6.854-2.783-3.705-1.339 0 0" style="fill:#f6fbfc" transform="translate(196.25 54.313)"/>
  <path d="M0 0c4.746 1.29 7.646 3.047 11.25 6.375l2.578 2.336C15.803 10.792 17.018 12.326 18 15c-.375 2.25-.375 2.25-1 4-2.8 1.077-4.191.959-7.187.313L7 18l-1-4c-2.996-1.305-2.996-1.305-6-2-.389-1.622-.76-3.248-1.125-4.875l-.633-2.742L-2 2z" style="fill:#eff6fa" transform="translate(237 26)"/>
  <path d="M0 0v29h-7q-.037-5.955-.055-11.908-.008-2.026-.02-4.054-.018-2.908-.023-5.815l-.016-3.54C-6.898-1.422-5.825 0 0 0" style="fill:#22355c" transform="translate(158 141)"/>
  <path d="M0 0c3.063 1.375 3.063 1.375 4.5 3.063.73 3.004 1.021 5.234.563 8.312-2.438 1.813-2.438 1.813-5 3l-1 1c-4.84.164-9.233-.047-14-1C-12.115 7.997-7.204.686 0 0" style="fill:#f0f6fa" transform="translate(258.938 55.625)"/>
  <path d="M0 0c2.9.925 3.882 1.502 6 3.813.938 2.75.938 2.75-.062 8.75l-16 2-2-5c1.624-3.063 1.624-3.063 4-6l1.75-2.5C-3.657-.707-3.036-.583 0 0" style="fill:#f6fafc" transform="translate(169.063 34.438)"/>
  <path d="m0 0 3.438.563a264 264 0 0 1 3 5c3.599.895 3.599.895 7 1v2h-7l-.313 1.75c-.785 2.57-1.993 4.186-3.687 6.25v-2h-8l-1-5h-5a259 259 0 0 1 4-5L-5.75 2.25C-3.562.563-3.562.563 0 0" style="fill:#0366d0" transform="translate(203.563 9.438)"/>
  <path d="M0 0h13v6L8 8 7 21H0z" style="fill:#1f3156" transform="translate(104 149)"/>
  <path d="m0 0 2 1v14c-2.396.304-4.785.569-7.187.813l-2.042.271c-4 .37-5.53.1-8.76-2.373C-18 11-18 11-18 7.813-17 5-17 5-14 3c2.688.375 2.688.375 5 1v2h5l-1 3V7l-5 1v2l3 2v2l1.813-.562C-3 13-3 13 0 14z" style="fill:#253456" transform="translate(61 155)"/>
  <path d="m0 0 2.422.645 1.828.543C3.765 5.826 1.988 8.1-1.125 11.5l-2.398 2.676c-2.227 2.011-2.227 2.011-5.227 2.011-.108-2.27-.186-4.54-.25-6.812l-.14-3.832c.39-3.355.39-3.355 2.109-5.355C-4.207-1.05-2.941-.822 0 0" style="fill:#f1f7fa" transform="translate(247.75 48.813)"/>
  <path d="M0 0c6 0 6 0 8 1L7 4a73 73 0 0 0-.316 4.012l-.127 2.295-.12 2.38-.13 2.417Q6.149 18.05 6 21H0z" style="fill:#0d1f44" transform="translate(371 149)"/>
  <path d="M0 0h6v21H0z" style="fill:#0b1f43" transform="translate(119 149)"/>
  <path d="M0 0h13l2 5c-1.5 3.313-1.5 3.313-4 6-2.937.813-2.937.813-6 0-2.155-2.076-3.75-4.28-5-7z" style="fill:#eff7fa" transform="translate(244 75)"/>
  <path d="M0 0v2h6C-4.565 7.494-4.565 7.494-10 7c.447 4.479.447 4.479 3 8l-7-1c-.872-2.995-1.108-5.636-1.062-8.75l.027-2.422L-15 1l2.117.035 2.758.028 2.742.035C-4.548.98-2.92 0 0 0" style="fill:#1468c2" transform="translate(243 97)"/>
  <path d="m0 0 2.73.082 2.083.106v3l-2.938.874c-3.17.768-3.17.768-4.062 3.125l6 1v4c-6.353 1.222-6.353 1.222-9.375.188-1.625-1.187-1.625-1.187-2.625-3.187-.456-5.358-.456-5.358 1.19-7.68C-4.56-.27-2.98-.116 0 0" style="fill:#14254c" transform="translate(251.188 157.813)"/>
  <path d="M0 0c8.067 1.862 14.058 7.186 18.563 13.938A170 170 0 0 1 21 18l-1 2-1.375-2.437C17.253 14.91 17.253 14.91 15 14l-1 3-1.285-1.61C8.835 10.719 5.457 7.674 0 5z" style="fill:#1e70c3" transform="translate(239 22)"/>
  <path d="M0 0c1 3 1 3-.25 5.5C-2 8-2 8-3.687 9.625-5.345 11.045-5.345 11.045-5 14c-2 1.688-2 1.688-4 3 .241-6.146.241-6.146 2.402-8.578C-5.12 7.212-3.564 6.098-2 5l-3.187.125C-8.808 5.006-10.774 4.482-14 3a144 144 0 0 0-4-1C-11.88.595-6.283-.233 0 0" style="fill:#166ec9" transform="translate(230 72)"/>
  <path d="M0 0a464 464 0 0 1 3.438 7C4.78 9.58 6.179 11.746 8 14H5l2 5C2.443 15.48-.907 12.54-3 7V4h3z" style="fill:#1e6ec1" transform="translate(153 59)"/>
  <path d="M0 0c2.25.063 2.25.063 5 1 1.85 2.131 3.07 4.339 4 7-.25 2.938-.25 2.938-1 5-1.824-.227-1.824-.227-4-1-1.52-1.96-1.52-1.96-2.812-4.375L-.145 5.227C-1 3-1 3 0 0" style="fill:#1a2b51" transform="translate(291 24)"/>
  <path d="M0 0c.733 4.69-1.194 7.55-3.516 11.426L-5 13h-4c-.622-5.099.692-7.654 3.516-11.68C-4 0-4 0 0 0" style="fill:#1a2d51" transform="translate(127 24)"/>
  <path d="M0 0c-.062 1.75-.062 1.75-1 4-2.924 2.347-5.634 4.14-9.437 3.75L-12 7c.125-2.312.125-2.312 1-5C-7.056-.689-4.575-1.48 0 0" style="fill:#213459" transform="translate(136 36)"/>
  <path d="M0 0c4.565.543 7.973 1.795 12 4l-1 5C6.245 8.424 3.03 6.45-1 4z" style="fill:#1f3155" transform="translate(282 35)"/>
  <path d="m0 0 2.703.055 2.047.07c-3 2-3 2-5 3l2 3-9 1-2-5C-6.038.219-3.711-.098 0 0" style="fill:#273556" transform="translate(53.25 148.875)"/>
  <path d="M0 0v12h-4C-5.294 8.117-5.132 5.093-5 1c1-1 1-1 5-1" style="fill:#223357" transform="translate(113 22)"/>
  <path d="M0 0h4v11l-4 1c-1-1-1-1-1.125-4.312C-1.029 4.854-.852 2.664 0 0" style="fill:#1e3057" transform="translate(305 22)"/>
  <path d="m0 0 2.375.125q.57 2.988 1 6c-1 1-1 1-4.062 1.063l-2.938-.063c-.625-2.375-.625-2.375-1-5 2-2 2-2 4.625-2.125" style="fill:#19284c" transform="translate(122.625 139.875)"/>
  <path d="M0 0c3 3 3 3 3.258 5.27l-.133 2.543C3 11.69 3.196 15.18 4 19H1v5H0l-1-9h2z" style="fill:#2470c1" transform="translate(264 43)"/>
  <path d="M0 0h1q.755 2.904 1.5 5.813l.844 3.269C4 12 4 12 4 15l2 1H3l-1-6H0v7h-1q-.546-2.371-1.062-4.75l-.598-2.672C-2.998 7.013-2.812 5.43-2 3l1 2z" style="fill:#3780c9" transform="translate(208 34)"/>
  <path d="m0 0-2 6-4-2-.187 1.75C-7.347 8.96-9.173 10.183-12 12l-3-1c1.813-2 1.813-2 4-4h3l.938-2.937C-5.435-.628-4.71 0 0 0" style="fill:#256ebd" transform="translate(160 38)"/>
  <path d="M0 0h3l1 13H1z" style="fill:#0461c5" transform="translate(235 52)"/>
  <path d="m0 0 1 2-1 2h-14V1h9v2h4z" style="fill:#071a45" transform="translate(309 157)"/>
  <path d="M0 0h4c-.55 3.848-2.32 5.32-5 8v3c-2 1.688-2 1.688-4 3 .241-6.146.241-6.146 2.402-8.578C-1.12 4.212.436 3.098 2 2z" style="fill:#2774c5" transform="translate(226 75)"/>
  <path d="m0 0 1 3h6l-1.812.813C2.957 4.889 2.957 4.889 1.374 6.624 0 8 0 8-2 8c-1.637 1.96-1.637 1.96-3 4l-2-1z" style="fill:#1f70c2" transform="translate(197 21)"/>
  <path d="M0 0c2 3 2 3 3 6L1 7v2l2 1H0c-1.387-1.75-1.387-1.75-2.687-4l-1.325-2.25L-5 2l2-1v2z" style="fill:#2b75c0" transform="translate(184 83)"/>
  <path d="m0 0 1 4h-4v8l-2 1V3l5-1z" style="fill:#060f31" transform="translate(405 151)"/>
  <path d="M0 0c1 2 1 2 .5 5.313C-1.473 10.162-3.599 11.31-8 14c.948-2.114 1.713-3.738 3.438-5.312C-2.197 6.133-1.279 3.226 0 0" style="fill:#276eb9" transform="translate(165 23)"/>
  <path d="M0 0c1.887.03 1.887.03 3.813.063v2L.063 2.5c-2.816.35-5.52.766-8.25 1.563l1-3C-4.437.145-2.828-.048 0 0" style="fill:#283452" transform="translate(137.188 148.938)"/>
  <path d="m0 0 2 2 3 2-2 3h-4c-.043-2-.04-4 0-6z" style="fill:#2c3b5c" transform="translate(119 30)"/>
  <path d="M0 0h2c1.607 3.215 1.057 6.436 1 10-1.5-1.062-1.5-1.062-3-3-.187-3.687-.187-3.687 0-7" style="fill:#0263c9" transform="translate(205 30)"/>
  <path d="m0 0 4 2-1.75.25C-.608 3.203-1.93 4.86-4 7h-2c1.393-3.367 2.979-4.986 6-7" style="fill:#273658" transform="translate(129 79)"/>
  <path d="M0 0v1l-2.812.813C-5.832 2.937-6.916 3.707-9 6h-2C-8.676-.473-6.699-.124 0 0" style="fill:#2c74c2" transform="translate(207 10)"/>
  <path d="m0 0 .375 1.875C.872 4.191.872 4.191 3 6L0 9V6l-4 1z" style="fill:#2771c0" transform="translate(259 78)"/>
  <path d="m0 0 2 1L.5 2.313C-1.332 3.997-1.332 3.997-1 7h-2V5l-4 1c2.257-2.335 4.28-4.187 7-6" style="fill:#1f6fc2" transform="translate(202 60)"/>
  <path d="M0 0h2C.557 3.366-1.333 5.51-4 8l-2-1a418 418 0 0 1 2.875-3.5l1.617-1.969z" style="fill:#2674c5" transform="translate(251 54)"/>
  <path d="M0 0h1l1 9C-.29 5.565-.178 4.015 0 0m-3 3 3 4-2 3z" style="fill:#2c77c3" transform="translate(208 34)"/>
  <path d="M0 0c-1.393 3.367-2.979 4.986-6 7l-2-1c4.625-6 4.625-6 8-6" style="fill:#223254" transform="translate(122 74)"/>
  <path d="M0 0h5l2 5H5L4 3h-5z" style="fill:#2e3856" transform="translate(126 66)"/>
  <path d="m0 0 1 3-2 3h-3c1.152-2.468 2.048-4.048 4-6m-6 6 2 1-2 1z" style="fill:#0663c6" transform="translate(196 27)"/>
  <path d="M0 0c1.207.03 1.207.03 2.438.063v2h-4l-1 4a88 88 0 0 1-1-5c1-1 1-1 3.562-1.063" style="fill:#050d28" transform="translate(70.563 143.938)"/>
  <path d="m0 0 3 3-2 1 1 4-5-5z" style="fill:#1a68b9" transform="translate(218 100)"/>
  <path d="M0 0v1l-2.437.375L-5 2l-1 2h-4V2C-6.356-.43-4.288-.162 0 0" style="fill:#1a6cc1" transform="translate(175 76)"/>
  <path d="m0 0 1 3-5 5c.498-3.688 1.1-5.605 4-8" style="fill:#196cc4" transform="translate(251 57)"/>
  <path d="M0 0v4l-3 1-1-3-3-1c3.625-2.125 3.625-2.125 7-1" style="fill:#2670bf" transform="translate(181 21)"/>
  <path d="m0 0-1 3c-2.062.688-2.062.688-4 1l-1-4c3.75-1.125 3.75-1.125 6 0" style="fill:#0d68c8" transform="translate(186 20)"/>
  <path d="M0 0h3v2h6C6.361 3.414 3.929 4.372 1 5z" style="fill:#2e74bd" transform="translate(240 97)"/>
  <path d="m0 0 5 1-3 4-5-1 3-2z" style="fill:#2272c5" transform="translate(192 49)"/>
  <path d="m0 0-1 4 3 1-4 1a88 88 0 0 1-1-5c1-1 1-1 3-1" style="fill:#3d4967" transform="translate(127 38)"/>
</svg>